<svg width="103" height="34" viewBox="0 0 103 34" fill="none" xmlns="http://www.w3.org/2000/svg">
<path d="M16.8 33.2C7.4 33.2 0 26.1 0 16.7C0 7.3 7.4 0 16.8 0C20.3 0 23.1 0.8 26 2.7V8.8C22.7 5.9 20.1 4.7 16.6 4.7C9.9 4.7 5.3 9.7 5.3 16.7C5.3 23.7 9.9 28.4 16.6 28.4C20.3 28.4 22.7 27.4 26.1 24.4V30.4C22.9 32.5 20.3 33.2 16.8 33.2ZM53.3 33.2C43.8 33.2 36.5 26 36.5 16.6C36.5 7.3 43.9 0 53.3 0C56.8 0 59.6 0.8 62.5 2.7V8.8C59.2 5.9 56.6 4.7 53.1 4.7C46.4 4.7 41.8 9.7 41.8 16.7C41.8 23.7 46.4 28.4 53.1 28.4C56.8 28.4 59.2 27.4 62.6 24.4V30.4C59.4 32.5 56.8 33.2 53.3 33.2ZM80.1 0.9L77.3 5.7H97.1V32.4H102.3V0.9" fill="white"/>
<path d="M83.9 11.4C77.9 11.4 73 16.3 73 22.3C73 28.3 77.9 33.2 83.9 33.2C89.9 33.2 94.8 28.3 94.8 22.3C94.8 16.3 89.9 11.4 83.9 11.4V11.4ZM83.9 28.8C80.3 28.8 77.5 25.9 77.5 22.3C77.5 18.7 80.4 15.8 83.9 15.8C87.5 15.8 90.3 18.7 90.3 22.3C90.3 25.8 87.4 28.8 83.9 28.8Z" fill="white"/>
</svg>
